<svg xmlns="http://www.w3.org/2000/svg" width="256" height="256" viewBox="0 0 256 256" role="img" aria-label="Asterion guardian burst skill icon">
  <defs>
    <linearGradient id="frame" x1="20" y1="20" x2="236" y2="236" gradientUnits="userSpaceOnUse">
      <stop stop-color="#e9faff"/>
      <stop offset=".18" stop-color="#364451"/>
      <stop offset=".52" stop-color="#07121b"/>
      <stop offset=".8" stop-color="#55edff"/>
      <stop offset="1" stop-color="#111821"/>
    </linearGradient>
    <radialGradient id="core" cx="50%" cy="46%" r="62%">
      <stop stop-color="#f7ffff"/>
      <stop offset=".2" stop-color="#8ff9ff"/>
      <stop offset=".56" stop-color="#1ed5e8"/>
      <stop offset="1" stop-color="#04131b"/>
    </radialGradient>
    <filter id="glow" x="-40%" y="-40%" width="180%" height="180%">
      <feGaussianBlur stdDeviation="6" result="blur"/>
      <feMerge>
        <feMergeNode in="blur"/>
        <feMergeNode in="SourceGraphic"/>
      </feMerge>
    </filter>
  </defs>
  <rect width="256" height="256" rx="34" fill="#020508"/>
  <path d="M36 14h184l22 22v184l-22 22H36l-22-22V36z" fill="#071018" stroke="url(#frame)" stroke-width="5"/>
  <path d="M51 30h154l20 20v156l-20 20H51l-20-20V50z" fill="#051018" stroke="#1bd9e8" stroke-width="2" opacity=".7"/>
  <g opacity=".35" stroke="#38ecff" stroke-width="2">
    <path d="M40 80h176M40 176h176M80 40v176M176 40v176"/>
    <path d="M62 56l132 144M194 56 62 200"/>
  </g>
  <g filter="url(#glow)">
    <path d="M128 50 183 78v70c0 36-24 58-55 72-31-14-55-36-55-72V78z" fill="rgba(31,233,255,.2)" stroke="#aefcff" stroke-width="7"/>
    <path d="M128 70 163 88v52c0 24-14 39-35 51-21-12-35-27-35-51V88z" fill="url(#core)" opacity=".9"/>
    <path d="M128 48v166M77 88l102 102M179 88 77 190" stroke="#e8ffff" stroke-width="4" opacity=".9"/>
    <g fill="#f7ffff">
      <rect x="118" y="105" width="20" height="58" rx="4"/>
      <rect x="99" y="124" width="58" height="20" rx="4"/>
    </g>
    <g fill="#dffcff">
      <path d="M59 100 28 117v22l31 17 10-18-21-10 21-10z"/>
      <path d="M197 100 228 117v22l-31 17-10-18 21-10-21-10z"/>
    </g>
  </g>
</svg>
