<svg xmlns="http://www.w3.org/2000/svg" width="256" height="256" viewBox="0 0 256 256" role="img" aria-label="Asterion gravity sphere skill icon">
  <defs>
    <radialGradient id="hole" cx="50%" cy="50%" r="60%">
      <stop stop-color="#ffffff"/>
      <stop offset=".1" stop-color="#affaff"/>
      <stop offset=".28" stop-color="#35dfff"/>
      <stop offset=".52" stop-color="#244cff"/>
      <stop offset=".76" stop-color="#100829"/>
      <stop offset="1" stop-color="#000000"/>
    </radialGradient>
    <linearGradient id="frame" x1="18" y1="18" x2="238" y2="238" gradientUnits="userSpaceOnUse">
      <stop stop-color="#f4ffff"/>
      <stop offset=".2" stop-color="#2a485c"/>
      <stop offset=".55" stop-color="#060a1a"/>
      <stop offset=".82" stop-color="#56e8ff"/>
      <stop offset="1" stop-color="#101827"/>
    </linearGradient>
    <filter id="glow" x="-50%" y="-50%" width="200%" height="200%">
      <feGaussianBlur stdDeviation="7" result="blur"/>
      <feMerge>
        <feMergeNode in="blur"/>
        <feMergeNode in="SourceGraphic"/>
      </feMerge>
    </filter>
  </defs>
  <rect width="256" height="256" rx="34" fill="#03040b"/>
  <path d="M36 14h184l22 22v184l-22 22H36l-22-22V36z" fill="#060817" stroke="url(#frame)" stroke-width="5"/>
  <path d="M52 31h152l21 21v152l-21 21H52l-21-21V52z" fill="#050712" stroke="#37e8ff" stroke-width="2" opacity=".74"/>
  <g opacity=".28" stroke="#5beaff" stroke-width="2">
    <path d="M38 128h180M128 38v180"/>
    <path d="M56 58c45 20 98 20 145 0M56 198c45-20 98-20 145 0"/>
  </g>
  <g filter="url(#glow)">
    <circle cx="128" cy="128" r="43" fill="url(#hole)"/>
    <path d="M57 137c40-48 110-58 145-22 23 24 4 54-34 64-46 12-91-7-102-36" fill="none" stroke="#e9ffff" stroke-width="7" stroke-linecap="round"/>
    <path d="M199 119c-40 49-111 59-145 23-23-25-3-56 37-65 47-10 91 11 101 39" fill="none" stroke="#4be4ff" stroke-width="7" stroke-linecap="round"/>
    <path d="M82 58c56 20 84 58 89 134M174 61c-58 19-88 57-93 131" fill="none" stroke="#466dff" stroke-width="4" stroke-linecap="round" opacity=".9"/>
    <circle cx="128" cy="128" r="82" fill="none" stroke="#72f2ff" stroke-width="4" stroke-dasharray="11 14"/>
    <circle cx="128" cy="128" r="107" fill="none" stroke="#ffffff" stroke-width="2" stroke-dasharray="4 16" opacity=".68"/>
    <g fill="#ffffff">
      <circle cx="67" cy="95" r="5"/>
      <circle cx="191" cy="160" r="4"/>
      <circle cx="152" cy="55" r="4"/>
    </g>
  </g>
</svg>
