<svg xmlns="http://www.w3.org/2000/svg" width="256" height="256" viewBox="0 0 256 256" role="img" aria-label="Mirage particles icon">
  <defs>
    <radialGradient id="bg" cx="50%" cy="48%" r="70%">
      <stop offset="0" stop-color="#ecfff8"/>
      <stop offset="0.22" stop-color="#7cffc4"/>
      <stop offset="0.52" stop-color="#33d1ff"/>
      <stop offset="1" stop-color="#070b18"/>
    </radialGradient>
    <linearGradient id="cloak" x1="58" y1="36" x2="198" y2="220">
      <stop offset="0" stop-color="#ffffff"/>
      <stop offset="0.42" stop-color="#7cffc4"/>
      <stop offset="0.72" stop-color="#4be4ff"/>
      <stop offset="1" stop-color="#9b7cff"/>
    </linearGradient>
    <filter id="glow" x="-45%" y="-45%" width="190%" height="190%">
      <feGaussianBlur stdDeviation="6" result="blur"/>
      <feMerge>
        <feMergeNode in="blur"/>
        <feMergeNode in="SourceGraphic"/>
      </feMerge>
    </filter>
  </defs>
  <rect width="256" height="256" rx="34" fill="#070b18"/>
  <circle cx="128" cy="128" r="104" fill="url(#bg)" opacity="0.2"/>
  <g filter="url(#glow)">
    <path d="M86 194c20-22 28-48 25-79-2-25 6-47 24-63 26 23 42 48 42 80 0 31-15 52-41 64-16 7-33 7-50-2Z" fill="url(#cloak)" opacity="0.42"/>
    <path d="M83 192c22-16 41-38 42-70 0-25 10-49 31-68" fill="none" stroke="#eaffff" stroke-width="7" stroke-linecap="round" opacity="0.8"/>
    <path d="M95 58c-22 24-31 48-26 72 5 26 2 50-10 72M184 56c-18 30-21 58-9 82 10 20 8 42-6 66" fill="none" stroke="#7cffc4" stroke-width="5" stroke-linecap="round" stroke-dasharray="15 13"/>
    <path d="M52 92h40M164 88h40M47 164h48M162 170h45" stroke="#4be4ff" stroke-width="5" stroke-linecap="round" opacity="0.8"/>
  </g>
  <g fill="#f3fffb">
    <circle cx="52" cy="72" r="5"/>
    <circle cx="210" cy="108" r="7"/>
    <circle cx="64" cy="212" r="6"/>
    <circle cx="196" cy="204" r="5"/>
    <circle cx="132" cy="30" r="4"/>
  </g>
</svg>
