<svg xmlns="http://www.w3.org/2000/svg" width="256" height="256" viewBox="0 0 256 256" role="img" aria-label="Valkyr taunt beacon skill icon">
  <defs>
    <linearGradient id="frame" x1="18" y1="18" x2="238" y2="238" gradientUnits="userSpaceOnUse">
      <stop stop-color="#f7ffff"/>
      <stop offset=".22" stop-color="#334457"/>
      <stop offset=".58" stop-color="#051019"/>
      <stop offset=".82" stop-color="#8bd7ff"/>
      <stop offset="1" stop-color="#151b24"/>
    </linearGradient>
    <radialGradient id="beacon" cx="50%" cy="50%" r="58%">
      <stop stop-color="#ffffff"/>
      <stop offset=".18" stop-color="#ffd166"/>
      <stop offset=".44" stop-color="#ffae30"/>
      <stop offset=".76" stop-color="#15385a"/>
      <stop offset="1" stop-color="#050a12"/>
    </radialGradient>
    <filter id="glow" x="-45%" y="-45%" width="190%" height="190%">
      <feGaussianBlur stdDeviation="6" result="blur"/>
      <feMerge>
        <feMergeNode in="blur"/>
        <feMergeNode in="SourceGraphic"/>
      </feMerge>
    </filter>
  </defs>
  <rect width="256" height="256" rx="34" fill="#02070d"/>
  <path d="M36 14h184l22 22v184l-22 22H36l-22-22V36z" fill="#06101a" stroke="url(#frame)" stroke-width="5"/>
  <path d="M52 31h152l21 21v152l-21 21H52l-21-21V52z" fill="#07131d" stroke="#8bd7ff" stroke-width="2" opacity=".76"/>
  <g opacity=".25" stroke="#8bd7ff" stroke-width="2">
    <path d="M40 78h176M40 178h176M78 40v176M178 40v176"/>
  </g>
  <g filter="url(#glow)">
    <path d="M128 43 184 99l-56 56-56-56z" fill="rgba(139,215,255,.18)" stroke="#8bd7ff" stroke-width="7"/>
    <circle cx="128" cy="99" r="39" fill="url(#beacon)" stroke="#fff4bf" stroke-width="4"/>
    <path d="M117 68h22v47h-22zM117 126h22v18h-22z" fill="#06101a"/>
    <path d="M50 73 21 91v34l29 18 13-20-28-15 28-15zM206 73l29 18v34l-29 18-13-20 28-15-28-15z" fill="#8bd7ff"/>
    <path d="M66 170h124M84 193h88" stroke="#ffd166" stroke-width="7" stroke-linecap="round"/>
    <path d="M67 170 47 206M189 170l20 36" stroke="#8bd7ff" stroke-width="5" stroke-linecap="round"/>
  </g>
</svg>
