<svg xmlns="http://www.w3.org/2000/svg" width="256" height="256" viewBox="0 0 256 256" role="img" aria-label="Helix regen field grid upgrade icon">
  <defs>
    <linearGradient id="frame" x1="18" y1="18" x2="238" y2="238" gradientUnits="userSpaceOnUse">
      <stop stop-color="#f4fff9"/><stop offset=".22" stop-color="#315348"/><stop offset=".58" stop-color="#061410"/><stop offset=".82" stop-color="#7cffc4"/><stop offset="1" stop-color="#102019"/>
    </linearGradient>
    <radialGradient id="field" cx="50%" cy="50%" r="66%">
      <stop stop-color="#ffffff"/><stop offset=".2" stop-color="#9dffd7"/><stop offset=".52" stop-color="#34e89d"/><stop offset="1" stop-color="#04140d"/>
    </radialGradient>
    <filter id="glow" x="-45%" y="-45%" width="190%" height="190%"><feGaussianBlur stdDeviation="7" result="b"/><feMerge><feMergeNode in="b"/><feMergeNode in="SourceGraphic"/></feMerge></filter>
  </defs>
  <rect width="256" height="256" rx="34" fill="#020806"/>
  <path d="M36 14h184l22 22v184l-22 22H36l-22-22V36z" fill="#06120e" stroke="url(#frame)" stroke-width="5"/>
  <path d="M52 31h152l21 21v152l-21 21H52l-21-21V52z" fill="#071610" stroke="#7cffc4" stroke-width="2" opacity=".76"/>
  <g filter="url(#glow)">
    <circle cx="128" cy="128" r="91" fill="url(#field)" opacity=".2" stroke="#7cffc4" stroke-width="6" stroke-dasharray="20 13"/>
    <circle cx="128" cy="128" r="57" fill="none" stroke="#dfffea" stroke-width="5"/>
    <path d="M128 47v162M47 128h162M71 71l114 114M185 71 71 185" stroke="#7cffc4" stroke-width="3" opacity=".85"/>
    <g fill="#ffffff">
      <rect x="118" y="86" width="20" height="84" rx="4"/>
      <rect x="86" y="118" width="84" height="20" rx="4"/>
    </g>
    <path d="M55 191c44-22 102-22 146 0" fill="none" stroke="#7cffc4" stroke-width="5" stroke-linecap="round"/>
  </g>
</svg>
