<svg xmlns="http://www.w3.org/2000/svg" width="256" height="256" viewBox="0 0 256 256" role="img" aria-label="Helix mirage particles upgrade icon">
  <defs>
    <linearGradient id="frame" x1="18" y1="18" x2="238" y2="238" gradientUnits="userSpaceOnUse">
      <stop stop-color="#f4fff9"/><stop offset=".22" stop-color="#315348"/><stop offset=".58" stop-color="#061410"/><stop offset=".82" stop-color="#7cffc4"/><stop offset="1" stop-color="#102019"/>
    </linearGradient>
    <filter id="glow" x="-45%" y="-45%" width="190%" height="190%"><feGaussianBlur stdDeviation="7" result="b"/><feMerge><feMergeNode in="b"/><feMergeNode in="SourceGraphic"/></feMerge></filter>
  </defs>
  <rect width="256" height="256" rx="34" fill="#020806"/>
  <path d="M36 14h184l22 22v184l-22 22H36l-22-22V36z" fill="#06120e" stroke="url(#frame)" stroke-width="5"/>
  <path d="M52 31h152l21 21v152l-21 21H52l-21-21V52z" fill="#071610" stroke="#7cffc4" stroke-width="2" opacity=".76"/>
  <g filter="url(#glow)">
    <path d="M128 47c41 23 63 56 63 94-18 31-39 52-63 64-24-12-45-33-63-64 0-38 22-71 63-94z" fill="rgba(124,255,196,.16)" stroke="#7cffc4" stroke-width="6"/>
    <path d="M93 78c31 23 31 78 0 101M128 61c28 35 28 91 0 130M163 78c-31 23-31 78 0 101" fill="none" stroke="#dfffea" stroke-width="5" stroke-linecap="round"/>
    <g fill="#7cffc4">
      <rect x="40" y="80" width="43" height="8" rx="4"/>
      <rect x="174" y="80" width="43" height="8" rx="4"/>
      <rect x="29" y="125" width="58" height="9" rx="4"/>
      <rect x="169" y="125" width="58" height="9" rx="4"/>
      <rect x="45" y="171" width="37" height="8" rx="4"/>
      <rect x="174" y="171" width="37" height="8" rx="4"/>
    </g>
    <circle cx="128" cy="128" r="90" fill="none" stroke="#ffffff" stroke-width="2" stroke-dasharray="5 15" opacity=".62"/>
  </g>
</svg>
