<svg xmlns="http://www.w3.org/2000/svg" width="256" height="256" viewBox="0 0 256 256" role="img" aria-label="Bastion cannon stabilizer upgrade icon">
  <defs>
    <linearGradient id="frame" x1="18" y1="18" x2="238" y2="238" gradientUnits="userSpaceOnUse">
      <stop stop-color="#fff9e8"/><stop offset=".22" stop-color="#594d32"/><stop offset=".58" stop-color="#140f06"/><stop offset=".82" stop-color="#f6c34f"/><stop offset="1" stop-color="#211b0e"/>
    </linearGradient>
    <filter id="glow" x="-45%" y="-45%" width="190%" height="190%"><feGaussianBlur stdDeviation="6" result="b"/><feMerge><feMergeNode in="b"/><feMergeNode in="SourceGraphic"/></feMerge></filter>
  </defs>
  <rect width="256" height="256" rx="34" fill="#080602"/>
  <path d="M36 14h184l22 22v184l-22 22H36l-22-22V36z" fill="#130f06" stroke="url(#frame)" stroke-width="5"/>
  <path d="M52 31h152l21 21v152l-21 21H52l-21-21V52z" fill="#161106" stroke="#f6c34f" stroke-width="2" opacity=".76"/>
  <g filter="url(#glow)">
    <path d="M63 92h130v44H63z" fill="#2b2515" stroke="#fff0bd" stroke-width="6"/>
    <path d="M91 80h74v88H91z" fill="#f6c34f" opacity=".55" stroke="#fff0bd" stroke-width="5"/>
    <path d="M40 128h176M128 40v176" stroke="#f6c34f" stroke-width="6" stroke-linecap="round"/>
    <path d="M64 64h128v128H64z" fill="none" stroke="#ffffff" stroke-width="4" stroke-dasharray="15 12"/>
    <path d="M79 186h98M95 207h66" stroke="#f6c34f" stroke-width="8" stroke-linecap="round"/>
    <circle cx="128" cy="128" r="24" fill="#ffffff"/>
  </g>
</svg>
