<svg xmlns="http://www.w3.org/2000/svg" width="256" height="256" viewBox="0 0 256 256" role="img" aria-label="Mirage phantom jammer core upgrade icon">
  <defs>
    <linearGradient id="frame" x1="18" y1="18" x2="238" y2="238" gradientUnits="userSpaceOnUse">
      <stop stop-color="#fff4ff"/><stop offset=".22" stop-color="#50345f"/><stop offset=".58" stop-color="#110817"/><stop offset=".82" stop-color="#c37bff"/><stop offset="1" stop-color="#1d1126"/>
    </linearGradient>
    <radialGradient id="core" cx="50%" cy="50%" r="63%">
      <stop stop-color="#ffffff"/><stop offset=".2" stop-color="#e0c0ff"/><stop offset=".48" stop-color="#c37bff"/><stop offset="1" stop-color="#16061f"/>
    </radialGradient>
    <filter id="glow" x="-45%" y="-45%" width="190%" height="190%"><feGaussianBlur stdDeviation="7" result="b"/><feMerge><feMergeNode in="b"/><feMergeNode in="SourceGraphic"/></feMerge></filter>
  </defs>
  <rect width="256" height="256" rx="34" fill="#07020a"/>
  <path d="M36 14h184l22 22v184l-22 22H36l-22-22V36z" fill="#110817" stroke="url(#frame)" stroke-width="5"/>
  <path d="M52 31h152l21 21v152l-21 21H52l-21-21V52z" fill="#12091a" stroke="#c37bff" stroke-width="2" opacity=".76"/>
  <g filter="url(#glow)">
    <circle cx="128" cy="128" r="48" fill="url(#core)" stroke="#f6e8ff" stroke-width="5"/>
    <path d="M128 50c32 18 54 45 66 78-12 33-34 60-66 78-32-18-54-45-66-78 12-33 34-60 66-78z" fill="none" stroke="#c37bff" stroke-width="7"/>
    <path d="M52 90h48M156 90h48M32 128h72M152 128h72M52 166h48M156 166h48" stroke="#c37bff" stroke-width="7" stroke-linecap="round"/>
    <path d="M91 77c32 28 42 72 30 125M165 77c-32 28-42 72-30 125" fill="none" stroke="#ffffff" stroke-width="4" stroke-linecap="round"/>
    <circle cx="128" cy="128" r="92" fill="none" stroke="#ffffff" stroke-width="2" stroke-dasharray="4 14" opacity=".58"/>
  </g>
</svg>
