<svg xmlns="http://www.w3.org/2000/svg" width="256" height="256" viewBox="0 0 256 256" role="img" aria-label="Nova assault wing upgrade icon">
  <defs>
    <linearGradient id="frame" x1="18" y1="18" x2="238" y2="238" gradientUnits="userSpaceOnUse">
      <stop stop-color="#fff8ef"/><stop offset=".22" stop-color="#594033"/><stop offset=".55" stop-color="#130905"/><stop offset=".82" stop-color="#ff9b38"/><stop offset="1" stop-color="#21140d"/>
    </linearGradient>
    <linearGradient id="wing" x1="40" y1="60" x2="216" y2="196" gradientUnits="userSpaceOnUse">
      <stop stop-color="#fff1bd"/><stop offset=".26" stop-color="#ffcf62"/><stop offset=".58" stop-color="#ff7b1a"/><stop offset="1" stop-color="#561107"/>
    </linearGradient>
    <filter id="glow" x="-45%" y="-45%" width="190%" height="190%"><feGaussianBlur stdDeviation="7" result="b"/><feMerge><feMergeNode in="b"/><feMergeNode in="SourceGraphic"/></feMerge></filter>
  </defs>
  <rect width="256" height="256" rx="34" fill="#080402"/>
  <path d="M36 14h184l22 22v184l-22 22H36l-22-22V36z" fill="#130805" stroke="url(#frame)" stroke-width="5"/>
  <path d="M52 31h152l21 21v152l-21 21H52l-21-21V52z" fill="#160b06" stroke="#ff9b38" stroke-width="2" opacity=".76"/>
  <g filter="url(#glow)">
    <path d="M128 41 163 126l-35 89-35-89z" fill="url(#wing)" stroke="#fff1bd" stroke-width="5"/>
    <path d="M111 89 36 63l40 76-46 60 88-35zM145 89l75-26-40 76 46 60-88-35z" fill="url(#wing)" stroke="#ffd166" stroke-width="5" stroke-linejoin="round"/>
    <path d="M128 58v135M54 202 112 144M202 202l-58-58" stroke="#ffffff" stroke-width="4" stroke-linecap="round"/>
    <path d="M30 128h54M172 128h54" stroke="#ff9b38" stroke-width="8" stroke-linecap="round"/>
  </g>
</svg>
