<svg xmlns="http://www.w3.org/2000/svg" width="256" height="256" viewBox="0 0 256 256" role="img" aria-label="Asterion gravity core upgrade icon">
  <defs>
    <linearGradient id="frame" x1="18" y1="18" x2="238" y2="238" gradientUnits="userSpaceOnUse">
      <stop stop-color="#f7ffff"/>
      <stop offset=".2" stop-color="#31475a"/>
      <stop offset=".58" stop-color="#050b15"/>
      <stop offset=".82" stop-color="#56e8ff"/>
      <stop offset="1" stop-color="#121824"/>
    </linearGradient>
    <radialGradient id="reactor" cx="50%" cy="50%" r="62%">
      <stop stop-color="#ffffff"/>
      <stop offset=".16" stop-color="#9df8ff"/>
      <stop offset=".42" stop-color="#46e4ff"/>
      <stop offset=".68" stop-color="#3357ff"/>
      <stop offset="1" stop-color="#040713"/>
    </radialGradient>
    <filter id="glow" x="-45%" y="-45%" width="190%" height="190%">
      <feGaussianBlur stdDeviation="7" result="blur"/>
      <feMerge>
        <feMergeNode in="blur"/>
        <feMergeNode in="SourceGraphic"/>
      </feMerge>
    </filter>
  </defs>
  <rect width="256" height="256" rx="34" fill="#02050b"/>
  <path d="M36 14h184l22 22v184l-22 22H36l-22-22V36z" fill="#060b16" stroke="url(#frame)" stroke-width="5"/>
  <path d="M52 31h152l21 21v152l-21 21H52l-21-21V52z" fill="#050a14" stroke="#4be4ff" stroke-width="2" opacity=".76"/>
  <g filter="url(#glow)">
    <circle cx="128" cy="128" r="42" fill="url(#reactor)" stroke="#eaffff" stroke-width="5"/>
    <path d="M128 45 153 89l50-5-25 44 25 44-50-5-25 44-25-44-50 5 25-44-25-44 50 5z" fill="none" stroke="#4be4ff" stroke-width="7" stroke-linejoin="round"/>
    <path d="M54 129c31-51 93-70 137-39M202 128c-31 51-93 70-137 39" fill="none" stroke="#ffffff" stroke-width="6" stroke-linecap="round"/>
    <path d="M82 74c49 8 80 38 92 107M174 74c-49 8-80 38-92 107" fill="none" stroke="#466dff" stroke-width="4" stroke-linecap="round"/>
    <circle cx="128" cy="128" r="91" fill="none" stroke="#8ef7ff" stroke-width="3" stroke-dasharray="8 13"/>
    <g fill="#ffffff">
      <rect x="118" y="22" width="20" height="32" rx="4"/>
      <rect x="118" y="202" width="20" height="32" rx="4"/>
      <rect x="22" y="118" width="32" height="20" rx="4"/>
      <rect x="202" y="118" width="32" height="20" rx="4"/>
    </g>
  </g>
</svg>
