<svg xmlns="http://www.w3.org/2000/svg" width="256" height="256" viewBox="0 0 256 256" role="img" aria-label="Valkyr GN field core upgrade icon">
  <defs>
    <linearGradient id="frame" x1="18" y1="18" x2="238" y2="238" gradientUnits="userSpaceOnUse">
      <stop stop-color="#f7ffff"/>
      <stop offset=".22" stop-color="#34485b"/>
      <stop offset=".57" stop-color="#061019"/>
      <stop offset=".82" stop-color="#8bd7ff"/>
      <stop offset="1" stop-color="#111a22"/>
    </linearGradient>
    <radialGradient id="core" cx="50%" cy="48%" r="64%">
      <stop stop-color="#ffffff"/>
      <stop offset=".18" stop-color="#bdf8ff"/>
      <stop offset=".42" stop-color="#8bd7ff"/>
      <stop offset=".68" stop-color="#30e7d4"/>
      <stop offset="1" stop-color="#04141a"/>
    </radialGradient>
    <filter id="glow" x="-45%" y="-45%" width="190%" height="190%">
      <feGaussianBlur stdDeviation="7" result="blur"/>
      <feMerge>
        <feMergeNode in="blur"/>
        <feMergeNode in="SourceGraphic"/>
      </feMerge>
    </filter>
  </defs>
  <rect width="256" height="256" rx="34" fill="#02070d"/>
  <path d="M36 14h184l22 22v184l-22 22H36l-22-22V36z" fill="#061019" stroke="url(#frame)" stroke-width="5"/>
  <path d="M52 31h152l21 21v152l-21 21H52l-21-21V52z" fill="#07131d" stroke="#8bd7ff" stroke-width="2" opacity=".76"/>
  <g filter="url(#glow)">
    <path d="M128 31 208 78v100l-80 47-80-47V78z" fill="rgba(139,215,255,.13)" stroke="#8bd7ff" stroke-width="7"/>
    <path d="M128 61 181 92v67l-53 31-53-31V92z" fill="url(#core)" opacity=".55" stroke="#dffcff" stroke-width="5"/>
    <circle cx="128" cy="126" r="31" fill="#ffffff" opacity=".92"/>
    <path d="M128 64v124M74 95l108 62M182 95 74 157" stroke="#061019" stroke-width="8" stroke-linecap="round" opacity=".75"/>
    <path d="M128 34v42M128 180v42M48 78l37 22M171 156l37 22M208 78l-37 22M85 156l-37 22" stroke="#8bd7ff" stroke-width="6" stroke-linecap="round"/>
    <path d="M46 128c33-21 66-21 98 0 27 18 51 18 76 0" fill="none" stroke="#30e7d4" stroke-width="6" stroke-linecap="round"/>
    <path d="M58 202c41-21 98-21 140 0" fill="none" stroke="#ffd166" stroke-width="5" stroke-linecap="round"/>
  </g>
</svg>
